<svg xmlns="http://www.w3.org/2000/svg" xmlns:xlink="http://www.w3.org/1999/xlink" fill="none" version="1.1" width="412" height="60.17978286743164" viewBox="0 0 412 60.17978286743164"><defs><clipPath id="master_svg0_36_376"><rect x="0" y="0" width="412" height="60.17978286743164" rx="0"/></clipPath><mask id="master_svg1_36_388" style="mask-type:alpha" maskUnits="userSpaceOnUse"><g><path d="M170.62509155273438,0L230.15599155273438,0L230.15599155273438,60.1798L170.62509155273438,60.1798L170.62509155273438,0Z" fill="#FFFFFF" fill-opacity="1"/></g></mask></defs><g clip-path="url(#master_svg0_36_376)"><g><g><g><g><path d="M361.472900390625,0.51898193359375L361.472900390625,58.74918193359375L376.077200390625,58.74918193359375L376.077200390625,30.95238193359375L411.298100390625,59.88308193359375L411.985500390625,59.88308193359375L412.00020039062497,1.52112193359375L397.098000390625,1.52112193359375L397.098000390625,29.04458193359375L362.038096390625,0.51898193359375L361.472900390625,0.51898193359375Z" fill="#141414" fill-opacity="1"/></g><g><path d="M134.9011296875,28.047004541015625L120.7190296875,1.520904541015625L102.8154296875,1.520904541015625L134.5658296875,58.80650454101563L135.1375296875,58.80650454101563L167.0514296875,1.520904541015625L149.0996296875,1.520904541015625L134.9011296875,28.047004541015625Z" fill="#141414" fill-opacity="1"/></g><g><path d="M75.568115234375,58.741279736328124L92.020115234375,58.741279736328124L92.020115234375,1.522979736328125L75.568115234375,1.522979736328125L75.568115234375,58.741279736328124Z" fill="#141414" fill-opacity="1"/></g><g><g><path d="M283.5019255859375,5.82923072265625L279.3686255859375,17.24509072265625C274.5072255859375,14.52429072265625,268.35552558593747,13.20599072265625,263.3203255859375,13.45799072265625C259.1514255859375,13.66649072265625,256.5215255859375,15.27179072265625,256.5215255859375,18.02429072265625C256.5215255859375,19.99059072265625,258.9072255859375,21.62909072265625,266.5595255859375,22.96389072265625C282.0912255859375,25.67319072265625,286.1968255859375,32.07549072265625,286.1968255859375,40.88429072265625C286.1968255859375,52.52429072265625,277.1663255859375,59.91679072265625,263.0990255859375,59.91679072265625C254.54262558593751,59.91679072265625,246.7769655859375,57.32469072265625,241.3682145859375,52.95979072265625L246.4588255859375,40.93939072265625C250.7582855859375,43.56449072265625,257.3815255859375,45.83759072265625,262.9458255859375,45.93679072265625C268.1880255859375,46.03029072265625,271.7602255859375,44.71649072265625,271.75882558593753,41.88519072265625C271.7574255859375,38.90369072265625,266.8735255859375,38.22509072265625,261.5535255859375,37.10899072265625C246.2312155859375,33.89469072265625,241.1937255859375,27.50489072265625,241.1937255859375,19.16809072265625C241.1937255859375,8.62940072265625,248.8047055859375,0.06549072265625,263.0990255859375,0.06549072265625C271.5240255859375,0.06549072265625,278.5586255859375,2.21801072265625,283.5019255859375,5.82923072265625Z" fill-rule="evenodd" fill="#141414" fill-opacity="1"/></g><g><path d="M346.106423046875,37.988932763671876C346.106423046875,51.48553276367188,337.225723046875,59.91663276367188,322.655223046875,59.91663276367188C308.084233046875,59.91663276367188,298.838623046875,51.722632763671875,298.838623046875,37.988932763671876L298.838623046875,1.547332763671875L314.251023046875,1.547332763671875L314.251023046875,36.25163276367188C314.251023046875,41.79203276367188,317.517023046875,45.693732763671875,322.655223046875,45.693732763671875C327.793223046875,45.693732763671875,331.064223046875,41.79203276367188,331.064223046875,36.25163276367188L331.064223046875,1.547332763671875L346.106423046875,1.547332763671875L346.106423046875,37.988932763671876Z" fill-rule="evenodd" fill="#141414" fill-opacity="1"/></g><g><g mask="url(#master_svg1_36_388)"><g><path d="M200.39069155273438,45.5979C192.16429155273437,45.5979,186.43509155273438,39.2451,186.43509155273438,30.2017C186.43509155273438,21.0091,192.16429155273437,14.5815,200.39069155273438,14.5815C208.61709155273437,14.5815,214.34599155273438,21.0091,214.34599155273438,30.2017C214.34599155273438,39.2451,208.61709155273437,45.5979,200.39069155273438,45.5979ZM200.39069155273438,0C183.37059155273437,0,170.62509155273438,12.7317,170.62509155273438,30.2084C170.62509155273438,47.5269,183.37059155273437,60.1798,200.39069155273438,60.1798C217.3326915527344,60.1798,230.15599155273438,47.5269,230.15599155273438,30.2084C230.15599155273438,12.7317,217.3326915527344,0,200.39069155273438,0Z" fill-rule="evenodd" fill="#141414" fill-opacity="1"/></g></g></g><g><path d="M21.6605,1.522369384765625L0,1.522369384765625Q10.8273,20.603069384765625,10.8465,20.636969384765624C13.0126,24.423669384765624,17.0442,26.969569384765624,21.6605,26.969569384765624C28.5664,26.969569384765624,34.1647,21.272969384765624,34.1647,14.245769384765625C34.1647,7.218749384765625,28.5664,1.522369384765625,21.6605,1.522369384765625Z" fill-rule="evenodd" fill="#141414" fill-opacity="1"/></g><g><path d="M65.31523359375001,1.522369384765625L46.24353359375,1.522369384765625L23.16943359375,42.192069384765624L32.66043359375,59.07916938476563L65.31523359375001,1.522369384765625Z" fill="#141414" fill-opacity="1"/></g></g></g></g></g></g></svg>